<?xml version="1.0" encoding="UTF-8" standalone="no"?>
<!DOCTYPE svg PUBLIC "-//W3C//DTD SVG 20010904//EN"
              "http://www.w3.org/TR/2001/REC-SVG-20010904/DTD/svg10.dtd">

<svg xmlns="http://www.w3.org/2000/svg"
     width="203.2mm" height="203.2mm"
     viewBox="0 0 800 800">
  <path id="Selection"
        fill="none" stroke="black" stroke-width="1"
        d="M 386.00,124.47
           C 365.24,129.40 366.00,143.62 366.00,161.00
             366.00,161.00 366.00,189.00 366.00,189.00
             366.00,189.00 366.00,389.00 366.00,389.00
             366.03,406.30 373.96,416.79 392.00,417.00
             398.55,417.07 405.81,417.52 412.00,415.19
             427.36,409.40 427.00,395.57 427.00,382.00
             427.00,382.00 427.00,353.00 427.00,353.00
             427.00,353.00 427.00,152.00 427.00,152.00
             426.99,147.84 427.05,145.07 425.78,141.00
             420.24,123.28 401.54,122.30 386.00,124.47 Z
           M 461.00,241.00
           C 459.34,246.83 460.00,253.90 460.00,260.00
             460.00,260.00 460.00,292.00 460.00,292.00
             460.00,294.17 459.77,297.68 461.02,299.50
             462.64,301.85 474.50,305.73 478.00,307.42
             495.06,315.68 509.09,325.13 523.00,338.09
             548.64,361.97 564.95,390.96 575.74,424.00
             575.74,424.00 581.00,443.00 581.00,443.00
             581.00,443.00 220.00,443.00 220.00,443.00
             220.95,431.26 226.20,415.93 230.70,405.00
             241.87,377.79 258.33,352.56 281.00,333.44
             292.04,324.12 304.09,315.89 317.00,309.41
             319.78,308.02 331.84,303.12 332.98,301.49
             334.23,299.71 334.00,296.15 334.00,294.00
             334.00,294.00 334.00,242.00 334.00,242.00
             318.96,244.84 298.79,253.69 285.00,260.58
             223.33,291.41 180.41,348.89 163.09,415.00
             156.90,438.60 155.96,461.77 156.00,486.00
             156.03,504.94 160.87,532.86 166.51,551.00
             190.70,628.87 249.48,689.58 328.00,713.23
             328.00,713.23 359.00,720.31 359.00,720.31
             359.00,720.31 366.00,721.82 366.00,721.82
             366.00,721.82 385.00,723.09 385.00,723.09
             385.00,723.09 395.00,724.00 395.00,724.00
             406.56,724.13 429.00,723.51 440.00,721.68
             482.64,714.57 522.86,696.20 556.13,668.58
             590.15,640.33 616.51,601.79 631.00,560.00
             631.00,560.00 574.00,560.00 574.00,560.00
             571.83,560.00 568.39,559.76 566.55,560.99
             564.19,562.58 561.80,569.22 560.40,572.00
             557.49,577.72 550.47,588.80 546.62,594.00
             528.85,618.02 502.45,639.63 475.00,651.67
             458.14,659.07 430.36,666.97 412.00,667.00
             412.00,667.00 390.00,667.00 390.00,667.00
             379.47,666.98 368.22,664.48 358.00,662.04
             299.94,648.15 249.75,606.30 228.58,550.00
             222.81,534.67 218.00,515.38 218.00,499.00
             218.00,499.00 642.96,499.00 642.96,499.00
             642.96,499.00 642.96,482.00 642.96,482.00
             642.96,482.00 642.00,470.00 642.00,470.00
             641.97,451.20 637.81,424.21 632.91,406.00
             618.62,352.79 582.57,304.91 537.00,274.51
             520.56,263.55 498.84,252.75 480.00,246.68
             480.00,246.68 461.00,241.00 461.00,241.00 Z" />
</svg>
